<?xml version="1.0" encoding="iso-8859-1"?>
<!-- Generator: Adobe Illustrator 21.0.0, SVG Export Plug-In . SVG Version: 6.00 Build 0)  -->
<svg version="1.1" id="Capa_1" xmlns="http://www.w3.org/2000/svg" xmlns:xlink="http://www.w3.org/1999/xlink" x="0px" y="0px"
	 viewBox="0 0 512 512" style="enable-background:new 0 0 512 512;" xml:space="preserve">
<path style="fill:#E0E0E2;" d="M93.481,444.515l-25.987-25.987c-15.802-5.898-34.309-2.516-46.994,10.169
	c-17.317,17.317-17.317,45.495,0,62.812s45.495,17.317,62.812,0C95.997,478.823,99.378,460.317,93.481,444.515z M39.493,472.516
	c-6.846-6.845-6.845-17.983,0-24.828s17.983-6.846,24.828,0c6.846,6.846,6.846,17.983,0,24.828
	C57.476,479.361,46.338,479.361,39.493,472.516z"/>
<rect x="56.485" y="345.592" transform="matrix(0.7071 -0.7071 0.7071 0.7071 -223.6098 207.3055)" style="fill:#FF7956;" width="163.9" height="55.963"/>
<polygon style="fill:#E0E0E2;" points="280.263,301.913 476.618,35.391 210.096,231.747 171.723,169.444 176.406,295.655 
	216.354,335.602 342.566,340.286 "/>
<g>
	<path style="fill:#C6C5CA;" d="M428.688,491.508c17.317,17.317,45.495,17.317,62.812,0s17.317-45.495,0-62.812
		c-12.684-12.684-31.191-16.065-46.994-10.169l-25.987,25.987C412.623,460.317,416.004,478.823,428.688,491.508z M447.68,472.516
		c-6.846-6.845-6.846-17.983,0-24.828s17.983-6.845,24.828,0c6.845,6.845,6.846,17.983,0,24.828
		C465.663,479.361,454.526,479.361,447.68,472.516z"/>
	<polygon style="fill:#C6C5CA;" points="280.263,301.913 310.632,320.618 335.595,295.655 338.285,223.156 	"/>
	<polygon style="fill:#C6C5CA;" points="171.723,169.444 210.096,231.747 256.001,197.927 35.383,35.391 173.716,223.156 	"/>
</g>
<polygon style="fill:#57A4FF;" points="310.632,320.618 342.566,340.286 299.093,338.672 411.727,451.308 451.299,411.736 
	335.407,295.843 "/>
<path style="fill:#C6C5CA;" d="M40.5,491.508c-17.317-17.317-17.317-45.495,0-62.812c6.104-6.104,13.561-10.031,21.411-11.828
	c-14.426-3.316-30.193,0.612-41.41,11.828c-17.317,17.317-17.317,45.495,0,62.812c11.214,11.214,26.981,15.156,41.405,11.846
	C54.056,501.553,46.603,497.611,40.5,491.508z"/>
<polygon style="fill:#FF3F62;" points="80.701,411.736 186.595,305.843 176.595,295.843 60.702,411.736 100.274,451.308 
	110.273,441.308 "/>
<g>
	<polygon style="fill:#C6C5CA;" points="240.095,231.747 441.007,83.728 476.618,35.391 230.731,216.543 	"/>
	<polygon style="fill:#C6C5CA;" points="246.352,335.602 206.405,295.655 203.645,221.272 171.723,169.444 176.406,295.655 
		216.354,335.602 342.566,340.286 340.643,339.101 	"/>
</g>
<g>
	<path style="fill:#898890;" d="M448.687,491.508c-12.684-12.684-16.065-31.191-10.167-46.993l25.987-25.987
		c1.828-0.682,3.696-1.227,5.583-1.661c-8.464-1.938-17.384-1.399-25.582,1.661l-25.987,25.987
		c-5.898,15.801-2.516,34.308,10.167,46.993c11.214,11.214,26.982,15.156,41.406,11.846
		C462.245,501.553,454.79,497.611,448.687,491.508z"/>
	<polygon style="fill:#898890;" points="300.262,301.913 337.224,251.742 338.285,223.156 280.263,301.913 310.632,320.618 
		318.255,312.996 	"/>
	<polygon style="fill:#898890;" points="201.722,169.444 203.645,221.272 210.096,231.747 230.731,216.543 	"/>
	<polygon style="fill:#898890;" points="100.994,83.728 35.383,35.391 173.716,223.156 172.125,180.278 	"/>
</g>
<g>
	<polygon style="fill:#006DF0;" points="362.565,340.286 330.631,320.618 345.406,305.843 335.407,295.843 310.632,320.618 
		341.284,339.496 	"/>
	<polygon style="fill:#006DF0;" points="319.863,339.443 299.093,338.672 411.728,451.308 421.728,441.308 	"/>
</g>
<path d="M51.907,435.055c-6.698,0-12.99,2.603-17.718,7.33c-4.727,4.728-7.331,11.02-7.331,17.717c0,6.698,2.604,12.99,7.331,17.718
	c4.728,4.727,11.02,7.331,17.718,7.331c6.697,0,12.989-2.604,17.717-7.331c4.728-4.728,7.33-11.02,7.33-17.718
	s-2.604-12.99-7.33-17.717C64.897,437.657,58.604,435.055,51.907,435.055z M59.018,467.213c-1.894,1.895-4.419,2.938-7.11,2.938
	c-2.692,0-5.218-1.044-7.111-2.938c-1.895-1.894-2.938-4.419-2.938-7.111c0-2.691,1.044-5.217,2.938-7.11
	c1.894-1.895,4.419-2.938,7.111-2.938c2.691,0,5.217,1.043,7.111,2.938c1.894,1.894,2.937,4.419,2.937,7.11
	C61.956,462.793,60.912,465.319,59.018,467.213z"/>
<g>
	
		<rect x="192.786" y="231.906" transform="matrix(0.7071 -0.7071 0.7071 0.7071 -89.4435 262.8747)" style="fill:#FFFFFF;" width="159.62" height="14.999"/>
	
		<rect x="333.9" y="163.102" transform="matrix(0.7071 -0.7071 0.7071 0.7071 -20.6397 291.3735)" style="fill:#FFFFFF;" width="14.999" height="14.999"/>
	
		<rect x="351.577" y="145.429" transform="matrix(0.7071 -0.7071 0.7071 0.7071 -2.9661 298.697)" style="fill:#FFFFFF;" width="14.999" height="14.999"/>
</g>
<path d="M458.422,408.252L343.198,293.029l1.264-34.087l-14.989-0.557l-1.263,34.05l-8.345,8.345l10.606,10.606l4.936-4.937
	l12.572,12.572l-9.772,9.772l-47.074-28.992L512,0.007L212.208,220.875l-49.036-79.616l5.632,151.769L53.58,408.253
	c-14.114-0.44-28.107,4.866-38.382,15.141c-20.24,20.241-20.24,53.176,0,73.418c10.12,10.119,23.415,15.18,36.709,15.18
	s26.589-5.061,36.71-15.181c10.273-10.274,15.58-24.267,15.14-38.38l115.224-115.225l101.065,3.75l-11.637,11.638l99.836,99.837
	c-0.44,14.113,4.867,28.106,15.14,38.38l0.001,0.001c10.121,10.12,23.415,15.18,36.709,15.18s26.589-5.061,36.709-15.181
	c20.24-20.241,20.24-53.176-0.001-73.418C486.528,413.118,472.535,407.812,458.422,408.252z M411.727,440.701l-12.571-12.571
	l28.966-28.966l12.572,12.572L411.727,440.701z M404.942,375.985l12.571,12.571l-28.966,28.966l-12.571-12.571L404.942,375.985z
	 M365.37,394.344l-12.571-12.571l28.966-28.966l12.571,12.571L365.37,394.344z M358.586,329.629l12.571,12.571l-4.262,4.262
	l-15.56-9.583L358.586,329.629z M117.665,365.378l12.571-12.571l28.966,28.966l-12.571,12.571L117.665,365.378z M136.024,404.951
	l-12.571,12.571l-28.966-28.966l12.571-12.571L136.024,404.951z M140.844,342.2l12.571-12.571l28.966,28.966l-12.571,12.571
	L140.844,342.2z M164.023,319.021l12.572-12.572l28.965,28.966l-12.571,12.571L164.023,319.021z M83.88,399.164l28.966,28.966
	l-12.571,12.571l-28.967-28.966L83.88,399.164z M78.011,486.205c-14.394,14.393-37.814,14.394-52.206,0.001
	c-14.393-14.394-14.393-37.813-0.001-52.206c7.023-7.022,16.49-10.777,26.135-10.777c3.841,0,7.711,0.597,11.463,1.819
	l23.567,23.568C91.262,461.782,87.828,476.387,78.011,486.205z M219.575,328.218l-35.783-35.783l-3.519-94.807l27.711,44.991
	L441.235,70.774L269.39,304.026l44.991,27.71L219.575,328.218z M340.501,347.714l24.244,0.9l-22.552,22.552l-12.572-12.572
	L340.501,347.714z M486.197,486.205c-14.392,14.395-37.812,14.394-52.205,0c-9.818-9.819-13.251-24.424-8.958-37.596l23.568-23.568
	c13.174-4.297,27.778-0.859,37.596,8.958C500.59,448.393,500.59,471.812,486.197,486.205z"/>
<path d="M460.094,435.055c-6.697,0-12.989,2.603-17.716,7.33c-4.728,4.727-7.331,11.019-7.331,17.717s2.603,12.99,7.33,17.718
	c4.728,4.727,11.02,7.331,17.717,7.331c6.698,0,12.99-2.604,17.718-7.331c4.727-4.728,7.331-11.02,7.331-17.718
	c0-6.697-2.604-12.989-7.331-17.717C473.084,437.657,466.791,435.055,460.094,435.055z M467.205,467.213
	c-1.894,1.895-4.419,2.938-7.111,2.938c-2.691,0-5.217-1.044-7.11-2.938c-1.895-1.894-2.938-4.42-2.938-7.111
	c0-2.691,1.043-5.217,2.938-7.11c1.894-1.895,4.419-2.938,7.11-2.938c2.692,0,5.218,1.043,7.111,2.938
	c1.895,1.894,2.938,4.419,2.938,7.11C470.143,462.794,469.099,465.319,467.205,467.213z"/>
<polygon points="158.68,190.103 70.766,70.774 145.418,125.771 154.313,113.696 0,0.007 146.604,198.998 "/>
<rect x="200.482" y="123.848" transform="matrix(0.5931 -0.8051 0.8051 0.5931 -46.2435 233.5868)" width="14.998" height="77.394"/>
<g>
</g>
<g>
</g>
<g>
</g>
<g>
</g>
<g>
</g>
<g>
</g>
<g>
</g>
<g>
</g>
<g>
</g>
<g>
</g>
<g>
</g>
<g>
</g>
<g>
</g>
<g>
</g>
<g>
</g>
</svg>
