<svg id="Layer_1" enable-background="new 0 0 512.762 512.762" height="512" viewBox="0 0 512.762 512.762" width="512" xmlns="http://www.w3.org/2000/svg"><g><g><path d="m309.897 106.996c-6.587 2.696-14.112-.458-16.808-7.045s.458-14.112 7.045-16.808 33.483.22 33.483.22-17.133 20.937-23.72 23.633z" fill="#272a2d"/></g><g><path d="m303.08 90.234c-1.958 5.055-7.643 7.565-12.698 5.606-5.055-1.958-7.565-7.643-5.606-12.698 1.958-5.055 17.656-18.403 17.656-18.403s2.606 20.44.648 25.495z" fill="#373c41"/></g><g><g id="XMLID_5479_"><path d="m349.527 460.369c-12.276-8.048-15.704-24.525-7.656-36.803l47.358-72.241-87.048-11.758c-14.504-2.273-24.418-15.872-22.145-30.376 2.273-14.503 15.883-24.416 30.375-22.144l127.749 18.137c8.921 1.398 16.521 7.228 20.182 15.482 3.662 8.253 2.883 17.8-2.067 25.351l-69.945 106.695c-8.035 12.255-24.504 15.718-36.803 7.657z" fill="#161819"/></g><g id="XMLID_5478_"><path d="m3.351 451.05c-7.131-12.832-2.509-29.015 10.323-36.146l224.632-124.83c12.832-7.13 29.015-2.509 36.146 10.323 7.13 12.832 2.509 29.015-10.323 36.146l-224.632 124.83c-12.803 7.116-28.999 2.537-36.146-10.323z" fill="#272a2d"/></g></g><path d="m475.224 54.661-149.818 87.641-39.65 19.454-28.002 13.739c-.009.005-.018.009-.028.014l-39.097 19.183c-7.594 3.726-12.144 11.711-11.478 20.144l9.903 125.383h40.894c.25 0 .467.048.665.121h47.245c20.546 0 37.194-16.669 37.169-37.215l-.014-11.45-4.034-5.425 4.014-11.246-.117-95.318 1.377-.676c.109-.054.217-.108.325-.163.009-.005.018-.009.026-.014.402-.207.795-.425 1.178-.654l150.606-88.102-2.395-18.493z" fill="#373c41"/><path d="m509.936 58.254c-5.753-9.834-18.389-13.142-28.221-7.389l-6.491 3.797 21.163 35.416 6.159-3.603c9.834-5.753 13.142-18.388 7.39-28.221z" fill="#ffb69e"/><g id="XMLID_5471_"><circle cx="272.661" cy="128.038" fill="#50555a" r="42.752"/></g><g><path d="m292.319 150.1h-39.346c-5.574 0-10.093-4.519-10.093-10.093s4.519-10.093 10.093-10.093h39.346c5.575 0 10.093 4.519 10.093 10.093s-4.519 10.093-10.093 10.093z" fill="#ffb69e"/></g><g><path d="m305.6 352.985v-64.848h-16.671v48.177z" fill="#dc1428"/><g fill="#ff3c3c"><path d="m233.365 275.004h109.648v16.671h-109.648z"/><path d="m320.261 289.643h-23.577l36.877 36.877-.326-23.902z"/></g></g><path d="m248.279 211.587c-.897-11.357-10.834-19.842-22.188-18.94-11.357.897-19.837 10.831-18.94 22.188l17.099 216.487 19.035 6.99 22.13-9.767z" fill="#50555a"/><path d="m266.045 436.515-.629-7.97-41.165 2.777.667 8.441c.853 10.805 9.886 19.005 20.541 19.005.545 0 1.094-.021 1.647-.065 11.357-.897 19.837-10.831 18.939-22.188z" fill="#ffb69e"/></g></svg>