<svg viewBox="-51 0 512 512" xmlns="http://www.w3.org/2000/svg"><path d="m367.132812 428.835938v-198.816407h-324.183593v198.816407c0 8.429687 6.832031 15.261718 15.265625 15.261718h293.652344c8.433593 0 15.265624-6.832031 15.265624-15.261718zm0 0" fill="#8b5f4e"/><path d="m45.296875 504.5c0-88.222656 71.519531-159.742188 159.742187-159.742188 88.226563 0 159.742188 71.519532 159.742188 159.742188zm0 0" fill="#f7c2ad"/><path d="m219.601562 345.425781c-4.796874-.433593-9.652343-.667969-14.5625-.667969-88.222656 0-159.742187 71.519532-159.742187 159.742188h29.121094c0-83.3125 63.785156-151.71875 145.183593-159.074219zm0 0" fill="#efb5a0"/><path d="m205.039062 344.757812c-47.140624 0-89.507812 20.425782-118.746093 52.902344v106.839844h237.496093v-106.839844c-29.238281-32.476562-71.605468-52.902344-118.75-52.902344zm0 0" fill="#5abc8b"/><path d="m219.597656 345.425781c-4.796875-.433593-9.648437-.667969-14.558594-.667969-47.140624 0-89.507812 20.425782-118.746093 52.902344v46.324219c22.097656-53.933594 72.835937-93.09375 133.304687-98.558594zm0 0" fill="#4aa575"/><path d="m123.925781 366.867188c24.53125 11.921874 52.054688 18.621093 81.113281 18.621093 29.0625 0 56.582032-6.695312 81.117188-18.621093-23.773438-14.046876-51.5-22.109376-81.117188-22.109376-29.613281 0-57.339843 8.0625-81.113281 22.109376zm0 0" fill="#4aa575"/><path d="m402.578125 208.863281c0 18.789063-15.230469 34.019531-34.015625 34.019531-18.789062 0-34.019531-15.230468-34.019531-34.019531 0-18.789062 15.230469-34.019531 34.019531-34.019531 18.785156 0 34.015625 15.230469 34.015625 34.019531zm0 0" fill="#efb5a0"/><path d="m75.539062 208.863281c0 18.789063-15.230468 34.019531-34.019531 34.019531-18.789062 0-34.019531-15.230468-34.019531-34.019531 0-18.789062 15.230469-34.019531 34.019531-34.019531 18.789063 0 34.019531 15.230469 34.019531 34.019531zm0 0" fill="#eaaa96"/><path d="m376.65625 199.3125c0 94.78125-76.835938 171.617188-171.617188 171.617188s-171.613281-76.835938-171.613281-171.617188 76.832031-171.617188 171.613281-171.617188 171.617188 76.835938 171.617188 171.617188zm0 0" fill="#f7c2ad"/><path d="m62.546875 199.3125c0-89.875 69.089844-163.601562 157.054687-170.996094-4.800781-.402344-9.65625-.621094-14.5625-.621094-94.78125 0-171.617187 76.835938-171.617187 171.617188s76.835937 171.617188 171.617187 171.617188c4.90625 0 9.761719-.21875 14.5625-.621094-87.964843-7.394532-157.054687-81.121094-157.054687-170.996094zm0 0" fill="#efb5a0"/><path d="m154.824219 352.820312-9.351563 151.679688h119.136719l-9.351563-151.679688c-15.792968-5.226562-32.671874-8.0625-50.21875-8.0625-17.542968 0-34.425781 2.835938-50.214843 8.0625zm0 0" fill="#f7c2ad"/><path d="m33.894531 186.59375h342.292969c-2.253906-30.769531-12.621094-59.285156-28.96875-83.421875h-284.355469c-16.351562 24.132813-26.714843 52.652344-28.96875 83.421875zm0 0" fill="#64d19b"/><path d="m62.863281 103.171875c-16.351562 24.132813-26.714843 52.652344-28.96875 83.421875h86.640625c22.640625-8.328125 40.078125-18.476562 52.941406-27.820312 14.179688-10.296876 24.46875-20.71875 31.5625-29.195313 7.097657 8.476563 17.386719 18.898437 31.566407 29.195313 12.859375 9.34375 30.296875 19.492187 52.941406 27.820312h86.640625c-2.253906-30.769531-12.621094-59.285156-28.96875-83.421875zm0 0" fill="#5abc8b"/><path d="m205.039062 236.910156c-66.039062 0-118.820312 28.53125-148.183593 48.996094 29.78125 50.859375 84.992187 85.023438 148.183593 85.023438 63.195313 0 118.40625-34.164063 148.1875-85.023438-29.367187-20.464844-82.144531-48.996094-148.1875-48.996094zm0 0" fill="#64d19b"/><path d="m205.039062 7.5c-102.683593 0-186.519531 80.6875-191.566406 182.117188 148.433594 0 191.566406-85.246094 191.566406-85.246094s43.136719 85.246094 191.570313 85.246094c-5.050781-101.429688-88.886719-182.117188-191.570313-182.117188zm0 0" fill="#9b6a57"/><path d="m219.601562 8.046875c-4.808593-.359375-9.664062-.546875-14.5625-.546875-102.683593 0-186.519531 80.6875-191.566406 182.117188 10.230469 0 19.941406-.417969 29.191406-1.171876 5.367188-96.046874 81.382813-173.226562 176.9375-180.398437zm0 0" fill="#8b5f4e"/><path d="m145.472656 504.5h119.136719l-5.964844-96.746094h-107.207031zm0 0" fill="#5c626b"/><path d="m78.710938 272.089844c-8.28125 4.734375-15.605469 9.457031-21.855469 13.816406 29.78125 50.859375 84.992187 85.023438 148.183593 85.023438 4.882813 0 9.710938-.230469 14.488282-.628907-62.464844-5.277343-115.394532-44.003906-140.816406-98.210937zm0 0" fill="#5abc8b"/><path d="m404.308594 187.738281c-.101563-.175781-.214844-.335937-.328125-.5-2.621094-43.617187-19.808594-85.707031-48.546875-118.71875-2.71875-3.125-7.457032-3.453125-10.578125-.734375-3.125 2.71875-3.453125 7.457032-.734375 10.582032 25.613281 29.425781 40.882812 65.121093 44.433594 103.664062-69.433594-1.53125-113.335938-22.683594-138.199219-40.539062-27.886719-20.019532-38.527344-40.324219-38.621094-40.507813-1.277344-2.519531-3.863281-4.113281-6.691406-4.113281s-5.414063 1.59375-6.691407 4.113281c-.402343.796875-41.101562 78.085937-176.820312 81.046875 8.730469-94.289062 87.851562-167.03125 183.507812-167.03125 44.183594 0 86.914063 15.871094 120.320313 44.6875 3.136719 2.707031 7.875 2.355469 10.578125-.78125 2.707031-3.136719 2.355469-7.871094-.78125-10.578125-36.128906-31.164063-82.339844-48.328125-130.117188-48.328125-105.648437 0-192.625 82.054688-198.933593 187.1875-3.996094 6.515625-6.105469 13.96875-6.105469 21.675781 0 19.832031 14.003906 36.726563 33.097656 40.65625.773438 2.644531 1.601563 5.265625 2.492188 7.859375-.089844.46875-.140625.949219-.140625 1.441406v170.015626c0 8.410156 4.601562 16.019531 11.878906 19.980468-6.269531 17.761719-9.53125 36.550782-9.53125 55.683594 0 4.140625 3.359375 7.5 7.5 7.5h100.164063.015624.011719 119.105469.007812.015626 100.164062c4.144531 0 7.5-3.359375 7.5-7.5 0-19.269531-3.363281-38.046875-9.601562-55.648438 7.246093-3.9375 11.953124-11.652343 11.953124-20.019531v-170.011719c0-.492187-.050781-.976562-.140624-1.441406.890624-2.59375 1.71875-5.214844 2.492187-7.855468 19.15625-3.902344 33.097656-20.640626 33.097656-40.660157-.003906-7.445312-1.996093-14.75-5.773437-21.125zm-389.308594 21.125c0-4.132812.957031-8.144531 2.769531-11.789062 2.765625-.027344 5.496094-.085938 8.1875-.175781-.011719.804687-.03125 1.613281-.03125 2.414062 0 11.242188 1.050781 22.246094 3.042969 32.921875-8.371094-4.5-13.96875-13.347656-13.96875-23.371094zm154.324219-55.800781c17.960937-13.046875 29.320312-26.132812 35.714843-34.871094 6.398438 8.738282 17.757813 21.824219 35.714844 34.871094 11.988282 8.707031 28.082032 18.136719 48.867188 26.03125h-169.160156c20.78125-7.894531 36.878906-17.324219 48.863281-26.03125zm-90.53125 343.9375h-25.808594c1.398437-27.996094 10.578125-54.691406 25.808594-77.367188zm1.84375-104.253906c-.046875.054687-.097657.101562-.140625.15625-5.832032 6.507812-11.1875 13.472656-15.980469 20.878906-4.332031 6.699219-8.152344 13.664062-11.457031 20.84375-1.625-1.449219-2.609375-3.53125-2.609375-5.792969v-139.042969c.082031.136719.160156.273438.25.402344.066406.09375.140625.171875.203125.257813 17.1875 28.953125 42.285156 52.679687 72.304687 68.164062-15.992187 8.980469-30.347656 20.523438-42.570312 34.132813zm124.402343-29.316406c-57.820312 0-108.753906-30.0625-137.992187-75.375 31.453125-20.789063 79.375-43.644532 137.992187-43.644532 58.621094 0 106.539063 22.855469 137.996094 43.644532-29.238281 45.3125-80.171875 75.375-137.996094 75.375zm45.628907 36.824218h-91.257813l1.683594-27.289062c14.066406 3.5625 28.789062 5.464844 43.945312 5.464844 15.160157 0 29.878907-1.902344 43.945313-5.460938zm-112.246094 96.746094h-44.628906v-96.292969c12.96875-13.960937 28.613281-25.597656 46.367187-33.972656.179688-.085937.347656-.179687.515625-.277344 1.871094.726563 3.761719 1.417969 5.664063 2.078125zm177.867187 0h-44.628906l-1.769531-28.71875c-.253906-4.136719-3.839844-7.285156-7.945313-7.023438-4.136718.253907-7.28125 3.8125-7.023437 7.945313l1.710937 27.796875h-103.1875l5.042969-81.746094h93.105469l1.683594 27.308594c.246094 3.976562 3.546875 7.039062 7.480468 7.039062.152344 0 .308594-.007812.46875-.015624 4.132813-.257813 7.277344-3.8125 7.019532-7.949219l-4.503906-73.097657c1.882812-.65625 3.75-1.339843 5.605468-2.058593 18 8.402343 33.839844 20.101562 46.941406 34.175781zm15 0v-77.460938c15.238282 22.660157 24.414063 49.363282 25.808594 77.460938zm28.34375-68.167969c0 2.273438-1.027343 4.394531-2.6875 5.847657-6.902343-14.980469-15.996093-28.867188-26.941406-41.21875-.371094-.546876-.816406-1.039063-1.316406-1.472657-11.929688-13.144531-26-24.460937-41.835938-33.363281 30.019532-15.476562 55.121094-39.199219 72.3125-68.148438.070313-.09375.148438-.183593.21875-.285156.089844-.128906.167969-.265625.25-.402344zm-9.042968-153.761719c-33.253906-21.839843-83.699219-45.660156-145.550782-45.660156-61.851562 0-112.296874 23.820313-145.546874 45.660156-11.851563-22.675781-18.566407-48.445312-18.566407-75.757812 0-1.070312.023438-2.144531.042969-3.21875 7.042969-.535156 13.816406-1.265625 20.320312-2.167969.507813.109375 1.03125.167969 1.574219.167969h287.199219c6.117188.824219 12.460938 1.5 19.046875 2 .023437 1.074219.046875 2.148438.046875 3.21875 0 27.308594-6.714844 53.082031-18.566406 75.757812zm30.515625-42.804687c1.996093-10.6875 3.050781-21.699219 3.050781-32.953125 0-.800781-.023438-1.609375-.035156-2.414062 2.695312.089843 5.429687.148437 8.199218.179687 1.808594 3.640625 2.757813 7.675781 2.757813 11.785156 0 10.125-5.578125 18.933594-13.972656 23.402344zm0 0"/><path d="m266.863281 205.066406c-4.144531 0-7.5 3.359375-7.5 7.5v11.023438c0 4.140625 3.355469 7.5 7.5 7.5s7.5-3.359375 7.5-7.5v-11.023438c0-4.140625-3.355469-7.5-7.5-7.5zm0 0"/><path d="m143.21875 205.066406c-4.144531 0-7.5 3.359375-7.5 7.5v11.023438c0 4.140625 3.355469 7.5 7.5 7.5 4.140625 0 7.5-3.359375 7.5-7.5v-11.023438c0-4.140625-3.359375-7.5-7.5-7.5zm0 0"/></svg>