<?xml version="1.0" encoding="iso-8859-1"?>
<!-- Generator: Adobe Illustrator 21.0.0, SVG Export Plug-In . SVG Version: 6.00 Build 0)  -->
<svg version="1.1" id="Capa_1" xmlns="http://www.w3.org/2000/svg" xmlns:xlink="http://www.w3.org/1999/xlink" x="0px" y="0px"
	 viewBox="0 0 512 512" style="enable-background:new 0 0 512 512;" xml:space="preserve">
<path style="fill:#5F6C75;" d="M126.427,395.078c-4.173,3.485-8.742,7.432-13.419,11.714c-4.056,3.72-8.196,7.692-12.243,11.831
	c-6.525-21.346-12.948-44.573-19.171-69.841c-1.679-6.827-3.351-13.813-4.997-20.934l14.746-2.695l16.358-2.998
	c1.386,6.969,2.923,13.973,4.577,21.01C116.334,360.406,121.12,377.797,126.427,395.078z"/>
<path style="fill:#7E8B96;" d="M126.427,395.078c-4.173,3.485-8.742,7.432-13.419,11.714c-5.971-19.868-11.849-41.332-17.559-64.517
	c-1.377-5.601-2.755-11.32-4.106-17.122l16.358-2.998c1.386,6.969,2.923,13.973,4.577,21.01
	C116.334,360.406,121.12,377.797,126.427,395.078z"/>
<path style="fill:#AE583E;" d="M95.485,339.5l-1.973,0.344c-1.275,0.233-2.549,0.303-3.794,0.253
	c-8.255-0.334-15.509-6.394-16.986-14.851l-3.885-22.247l-1.851-10.602l-2.054-11.776l-1.851-10.602l-2.205-12.656l-1.851-10.612
	l-2.175-12.474l-1.851-10.612l-1.153-6.586c-1.558-8.943,3.875-17.573,12.342-20.223c0.728-0.223,1.487-0.405,2.266-0.546
	l1.983-0.354c9.722-1.689,19.08,4.876,20.77,14.609l1.042,5.949l1.851,10.602l2.175,12.484l1.851,10.602l2.205,12.666l1.851,10.602
	l2.054,11.766l1.851,10.602l3.996,22.884C111.793,328.453,105.218,337.8,95.485,339.5z"/>
<path style="fill:#C0694E;" d="M70.444,195.957l-1.978,0.351c-0.778,0.137-1.539,0.321-2.272,0.549
	c-1.507,3.217-2.078,6.905-1.422,10.651l21.85,125.234c0.478,2.744,1.566,5.235,3.099,7.353c1.242,0.057,2.514-0.022,3.791-0.25
	l1.975-0.345c9.73-1.702,16.305-11.049,14.603-20.78L91.217,210.558C89.521,200.831,80.172,194.263,70.444,195.957z"/>
<path style="fill:#954C35;" d="M129.27,318.427l-70.965,13.105c-5.817,1.074-9.702,6.715-8.623,12.542
	c1.075,5.817,6.715,9.702,12.539,8.631l5.801-1.074l65.154-12.028c3.601-0.666,6.45-3.072,7.857-6.186
	c0.771-1.708,1.11-3.626,0.89-5.582c-0.026-0.256-0.066-0.518-0.114-0.776C140.734,321.24,135.087,317.352,129.27,318.427z"/>
<path style="fill:#C0694E;" d="M141.923,327.833l-65.157,12.034c-5.565,1.023-9.359,6.217-8.744,11.763l65.154-12.028
	c3.601-0.666,6.45-3.072,7.857-6.186C141.804,331.709,142.141,329.791,141.923,327.833z"/>
<path style="fill:#0956C6;" d="M349.831,361.565c-2.78-0.201-5.592-0.303-8.422-0.303h-50.233h-5.838
	c46.734-0.404,84.847-38.744,84.847-85.568v-69.006c0-31.453-12.868-60.043-33.598-80.772s-49.319-33.598-80.772-33.598
	c-62.906,0-114.379,51.464-114.379,114.369v69.006c0,46.825,38.113,85.165,84.847,85.568h-6.232h-49.863
	c-2.83,0-5.643,0.101-8.422,0.303C100.977,365.915,52.6,417.004,52.6,478.85v15.485c0,5.542,4.534,10.077,10.077,10.077h386.245
	c5.543,0,10.077-4.534,10.077-10.077V478.85C458.996,417.004,410.619,365.915,349.831,361.565z"/>
<path style="fill:#F2BB88;" d="M345.994,193.869v21.446c0,6.424-2.872,12.352-7.574,16.324c-2.007,1.713-4.35,3.065-6.953,3.947
	l-68.782,23.32c-4.585,1.562-9.556,1.562-14.141,0l-68.782-23.32c-8.683-2.947-14.528-11.101-14.528-20.271v-21.446
	c0-8.086,4.534-15.493,11.765-19.112c5.912-2.964,14.368-6.55,26.023-10.236c12.403-3.921,28.433-7.936,48.898-11.378
	c2.443-0.412,4.946-0.412,7.389,0c39.686,6.684,62.711,15.502,74.921,21.614C341.459,178.376,345.994,185.783,345.994,193.869z"/>
<path style="fill:#F2D1A5;" d="M345.994,193.869v21.446c0,6.424-2.872,12.352-7.574,16.324l-48.865,16.576
	c-4.585,1.554-9.556,1.554-14.141,0l-68.782-23.328c-8.683-2.939-14.528-11.093-14.528-20.263v-21.446
	c0-7.768,4.182-14.905,10.917-18.659c12.403-3.921,28.433-7.936,48.898-11.378c2.443-0.412,4.946-0.412,7.389,0
	c39.686,6.684,62.711,15.502,74.921,21.614C341.459,178.376,345.994,185.783,345.994,193.869z"/>
<path style="fill:#0A3575;" d="M370.184,255.268v20.426c0,22.712-8.963,43.411-23.521,58.778
	c-15.62,16.49-37.695,26.809-62.066,26.809h-57.574c-47.073,0-85.587-38.514-85.587-85.587v-20.426c0,0,12.626-8.437,34.943-16.187
	C215.935,225.343,285.973,213.78,370.184,255.268z"/>
<path style="fill:#FF9F22;" d="M477.977,148.598c-7.952,2.539-18.109,5.574-30.219,8.771c-15.499,4.097-34.194,8.468-55.551,12.403
	c-38.008,7.021-84.434,12.676-136.211,13.051c-103.555-0.718-185.712-22.651-221.981-34.225c-7.072-2.256-7.911-13.769-1.265-17.441
	L220.507,16.899c11.118-6.141,23.228-9.317,35.489-9.317c6.131,0,12.221,0.799,18.17,2.357c4.532,1.184,8.984,2.823,13.303,4.896
	c1.356,0.637,2.691,1.335,4.016,2.064l187.756,114.258C485.889,134.829,485.049,146.342,477.977,148.598z"/>
<path style="fill:#FFB52D;" d="M477.977,148.598c-7.952,2.539-18.109,5.574-30.219,8.771c-29.419,3.946-62.329,6.677-97.737,6.93
	c-103.565-0.728-185.712-22.661-221.981-34.225c-7.082-2.256-7.921-13.769-1.275-17.441L287.47,14.835
	c1.356,0.637,2.691,1.335,4.016,2.064l187.756,114.258C485.889,134.829,485.049,146.342,477.977,148.598z"/>
<path style="fill:#0A66EA;" d="M458.996,478.85v15.485c0,5.542-4.534,10.077-10.077,10.077H119.231
	c-5.542,0-10.077-4.534-10.077-10.077V478.85c0-61.846,48.377-112.936,109.166-117.286c2.779-0.201,5.593-0.303,8.422-0.303h114.666
	c2.83,0,5.643,0.101,8.422,0.303C410.619,365.915,458.996,417.004,458.996,478.85z"/>
<path style="fill:#FFB52D;" d="M285.163,426.232l-29.366,29.366l-94.034-94.034c2.779-0.201,5.593-0.303,8.422-0.303h50.007
	L285.163,426.232z"/>
<path style="fill:#FF9F22;" d="M349.831,361.565c-21.747,21.747-127.874,127.874-142.848,142.848h-58.722
	c120.651-120.66,142.393-142.401,143.141-143.15h50.006C344.239,361.262,347.051,361.363,349.831,361.565z"/>
<path style="fill:#0A4499;" d="M370.184,255.268v20.426c0,22.712-8.963,43.411-23.521,58.778
	c-8.528,2.873-17.654,4.431-27.123,4.431h-57.574c-47.073,0-85.587-38.514-85.587-85.587v-14.234
	C215.935,225.343,285.973,213.78,370.184,255.268z"/>
<path d="M46.759,219.276c-0.009-0.051-0.003-0.017,0.005,0.029c-0.001-0.006-0.002-0.012-0.003-0.017
	C46.76,219.285,46.759,219.28,46.759,219.276z"/>
<path d="M46.78,219.399c0-0.003-0.001-0.004-0.001-0.007C46.779,219.395,46.779,219.397,46.78,219.399z"/>
<path d="M483.076,124.611L295.432,10.414c-24.67-13.707-53.561-14.062-78.87,0l-46.739,28.448c-3.581,2.175-4.714,6.849-2.539,10.42
	c2.175,3.581,6.849,4.724,10.42,2.539l46.608-28.357c20.137-11.066,43.207-11.08,63.371,0
	C482.713,142.148,475.178,137.581,475.58,137.803c0.84,0.456,0.746,3.125,0.091,3.561c-138.315,44.18-298.012,45.073-439.338,0.01
	c-0.152-0.111-0.536-0.799-0.536-1.801c0-2.961-6.643,3.266,115.988-71.97c3.581-2.185,4.714-6.849,2.529-10.43
	c-2.175-3.581-6.839-4.714-10.42-2.539L28.917,124.611c-12.264,6.956-10.576,26.954,2.792,31.22
	c22.56,7.193,58.839,17.208,104.991,24.604c-4.657,21.044-2.122,30.641-2.853,95.259c0,13.759,3.002,26.83,8.38,38.597
	c-9.322-7.14-18.449-1.997-25.507-1.489L99.006,210.219c-1.204-6.96-5.058-13.051-10.855-17.138
	c-19.304-13.587-45.404,2.999-41.398,26.162c0.002,0.013,0.004,0.022,0.006,0.034c0.001,0.004,0.001,0.007,0.002,0.012
	c0.001,0.008,0.003,0.019,0.005,0.026c-0.001-0.003-0.001-0.006-0.002-0.01c0.004,0.021,0.008,0.049,0.015,0.086
	c-0.001-0.004-0.002-0.009-0.003-0.016c0.004,0.023,0.005,0.029,0.004,0.023c0.234,1.351,2.355,13.633,17.788,102.954
	c-4.595,1.377-13.431,0.362-19.394,9.014c-5.779,8.354-3.69,19.706,4.664,25.484c9.539,6.587,18.168,1.174,26.324,0.647
	c2.63,10.43,5.331,20.709,8.114,30.775c-47.199,44.88-37.954,100.024-39.04,106.063c0,9.742,7.921,17.664,17.664,17.664
	c17.05,0,369.03,0,386.195,0c9.742,0,17.664-7.921,17.664-17.664c-0.516-10.45,2.114-28.814-6.11-54.023
	c-1.295-3.986-5.574-6.161-9.56-4.866c-3.986,1.305-6.161,5.584-4.866,9.57c7.341,22.48,4.872,38.866,5.362,49.319
	c0,1.346-1.143,2.489-2.489,2.489H225.505c6.849-6.849,120.458-120.46,127.371-127.371c32.861,3.412,63.012,21.921,81.164,50.009
	c2.276,3.521,6.97,4.532,10.491,2.256c3.521-2.276,4.532-6.97,2.256-10.491c-40.996-63.426-109.971-57.194-111.284-57.534
	c25.432-16.655,42.268-45.398,42.268-78c-0.714-63.179,1.814-74.031-2.853-95.249c39.319-6.32,75.32-15.038,105.355-24.614
	c6.637-2.114,11.098-8.65,11.098-16.258C491.372,133.231,488.195,127.515,483.076,124.611z M149.336,327.073
	c7.025,10.586,16.152,19.659,26.783,26.62c-3.441,0.269-24.754-1.765-51.013,8.528c-1.184-4.401-2.307-8.761-3.369-13.061
	l12.656-2.317C143.787,345.121,150.253,336.463,149.336,327.073z M99.35,301.38l2.448,14.153l-22.297,4.087l-2.418-14.001
	L99.35,301.38z M96.77,286.428l-22.277,4.229l-1.275-7.375l22.278-4.236L96.77,286.428z M92.916,264.09l-22.278,4.236l-1.436-8.271
	l22.277-4.239L92.916,264.09z M88.899,240.862l-22.277,4.239c-0.018-0.104-1.424-8.207-1.406-8.103l22.287-4.229L88.899,240.862z
	 M62.636,222.055l-0.931-5.392c-2.058-12.058,14.08-18.504,20.759-7.972c1.811,2.833,1.627,5.19,2.458,9.115L62.636,222.055z
	 M58.458,344.366c-2.346-1.642-1.472-5.211,1.224-5.696c75.788-13.859,70.944-13.01,71.383-13.01c3.839,0,4.337,5.564,0.597,6.262
	C55.699,345.814,60.055,345.444,58.458,344.366z M111.136,368.707c-4.896,2.651-9.591,5.615-14.052,8.872
	c-2.033-7.496-4.026-15.114-5.969-22.813l15.671-2.873C108.141,357.407,109.588,363.021,111.136,368.707z M204.048,496.825h-37.26
	l20.173-20.173c2.964-2.964,2.964-7.77,0-10.734c-2.964-2.954-7.77-2.954-10.734,0l-30.897,30.906h-82.43
	c-1.346,0-2.489-1.143-2.489-2.489v-15.479c0-55.829,42.561-103.615,98.717-109.394l56.777,56.777l-18.22,18.22
	c-2.954,2.964-2.954,7.77,0.01,10.734c2.954,2.964,7.76,2.964,10.724,0c35.016-35.004,17.686-17.686,86.326-86.326h37.26
	C325.096,375.776,210.696,490.176,204.048,496.825z M245.273,396.882l-18.635,18.635l-46.648-46.648h37.26L245.273,396.882z
	 M238.707,368.869h34.579l-17.289,17.289L238.707,368.869z M362.596,275.694c0,43.006-34.984,78-78,78h-57.574
	c-43.006,0-78-34.994-78-78v-16.155c7.754-4.45,28.559-15.123,58.874-21.161c35.229-7.016,90.38-8.782,154.699,21.669V275.694z
	 M362.596,243.346c-76.775-34.229-155.009-30.429-213.574-1.022c0.541-29.861-1.534-41.203,2.721-59.624
	c71.574,10.091,135.524,10.25,208.121,0.01C364.108,200.993,362.036,211.521,362.596,243.346z"/>
<circle cx="198.773" cy="206.198" r="11.361"/>
<circle cx="312.778" cy="206.198" r="11.361"/>
<g>
</g>
<g>
</g>
<g>
</g>
<g>
</g>
<g>
</g>
<g>
</g>
<g>
</g>
<g>
</g>
<g>
</g>
<g>
</g>
<g>
</g>
<g>
</g>
<g>
</g>
<g>
</g>
<g>
</g>
</svg>
