<?xml version="1.0" encoding="iso-8859-1"?>
<!-- Generator: Adobe Illustrator 21.0.0, SVG Export Plug-In . SVG Version: 6.00 Build 0)  -->
<svg version="1.1" id="Capa_1" xmlns="http://www.w3.org/2000/svg" xmlns:xlink="http://www.w3.org/1999/xlink" x="0px" y="0px"
	 viewBox="0 0 511.999 511.999" style="enable-background:new 0 0 511.999 511.999;" xml:space="preserve">
<path style="fill:#71892E;" d="M373.291,65.904c0,0,5.346-41.76,61.436-28.896c7.214,1.655,10.373,10.12,6.108,16.168
	C428.948,70.037,403.898,95.114,373.291,65.904z"/>
<g>
	<path style="fill:#7FA32F;" d="M373.291,65.904c0.406-11.202,67.734,5.534,67.519,65.453c-0.021,5.838-4.917,10.47-10.751,10.283
		C410.77,141.022,370.901,131.821,373.291,65.904z"/>
	<path style="fill:#7FA32F;" d="M369.331,332.245c-3.35-0.243-6.74-0.364-10.151-0.364h-60.542c52.253,0,95.003-42.75,95.003-95.003
		v-102.25c0-65.805-50.745-120.335-115.032-126.398c-3.927-0.364-7.904-0.557-11.922-0.557h-21.82
		c-69.823,0-126.954,57.131-126.954,126.954v102.25c0,52.253,42.75,95.003,95.003,95.003h-60.097c-3.411,0-6.801,0.121-10.151,0.364
		c-73.264,5.243-131.569,66.817-131.569,141.356v18.663c0,6.68,5.465,12.145,12.145,12.145h465.512
		c6.68,0,12.145-5.465,12.145-12.145v-18.663C500.9,399.062,442.595,337.488,369.331,332.245z"/>
</g>
<path style="fill:#94BE36;" d="M393.641,134.628v102.25c0,52.253-42.75,95.003-95.003,95.003H258.57
	c-52.253,0-95.003-42.75-95.003-95.003v-102.25c0-65.805,50.745-120.345,115.042-126.398
	C342.896,14.293,393.641,68.823,393.641,134.628z"/>
<path style="fill:#F2BB88;" d="M364.706,130.134v25.848c0,7.742-3.461,14.888-9.129,19.675c-2.419,2.065-5.243,3.694-8.38,4.757
	l-82.899,28.105c-5.526,1.882-11.517,1.882-17.043,0l-82.899-28.105c-10.465-3.552-17.509-13.38-17.509-24.431v-25.848
	c0-9.746,5.465-18.673,14.179-23.035c7.125-3.573,17.317-7.894,31.364-12.337c14.948-4.726,34.269-9.564,58.933-13.714
	c2.945-0.496,5.961-0.496,8.906,0c47.831,8.056,75.582,18.683,90.297,26.051C359.241,111.462,364.706,120.388,364.706,130.134z"/>
<path style="fill:#F2D1A5;" d="M364.706,130.134v25.848c0,7.742-3.461,14.888-9.129,19.675l-58.892,19.978
	c-5.526,1.872-11.517,1.872-17.043,0l-82.899-28.115c-10.465-3.542-17.509-13.369-17.509-24.421v-25.848
	c0-9.362,5.04-17.964,13.157-22.488c14.948-4.726,34.269-9.564,58.933-13.714c2.945-0.496,5.961-0.496,8.906,0
	c47.831,8.056,75.582,18.683,90.297,26.051C359.241,111.462,364.706,120.388,364.706,130.134z"/>
<path style="fill:#94BE36;" d="M500.9,473.601v18.663c0,6.68-5.465,12.145-12.145,12.145H91.406c-6.68,0-12.145-5.465-12.145-12.145
	v-18.663c0-74.539,58.305-136.114,131.569-141.356c3.35-0.243,6.74-0.364,10.151-0.364H359.18c3.411,0,6.801,0.121,10.151,0.364
	C442.595,337.488,500.9,399.062,500.9,473.601z"/>
<path style="fill:#C0694E;" d="M291.391,410.185l-35.392,35.392L142.667,332.245c3.35-0.243,6.74-0.364,10.151-0.364h60.269
	L291.391,410.185z"/>
<path style="fill:#954C35;" d="M369.331,332.245c-26.21,26.21-154.116,154.116-172.164,172.164h-70.774
	c145.41-145.423,171.615-171.625,172.518-172.528h60.269C362.591,331.881,365.981,332.002,369.331,332.245z"/>
<path style="fill:#71892E;" d="M390.746,107.687h-269.94c4.666-21.375,14.756-40.776,28.733-56.676h212.474
	C375.99,66.91,386.081,86.312,390.746,107.687z"/>
<circle cx="198.75" cy="141.174" r="11.366"/>
<circle cx="312.801" cy="141.174" r="11.366"/>
<path d="M369.88,324.675c-7.601-0.551-12.395-0.336-17.589-0.384c29.34-18.074,48.94-50.493,48.94-87.413v-94.467
	c12.91,6.354,28.802,7.963,40.189,6.255c3.34-0.547,5.91-3.239,6.315-6.599c3.694-31-8.4-51.514-20.555-63.933
	c17.215-12.155,27.387-32.791,27.943-33.935c1.995-4.096-0.074-9.052-4.403-10.495c-30.264-10.245-63.856-11.414-79.606,16.331
	c-26.129-32.162-64.774-49.953-104.43-49.953c-9.325,1.606-73.255-10.503-122.845,45.918c-20.934,23.812-33.52,54.942-33.52,88.627
	v45.128c0,4.19,3.401,7.591,7.591,7.591c4.19,0,7.591-3.401,7.591-7.591c0.376-41.213-0.971-48.982,1.582-64.479h15.623
	c-5.428,10.953-2.716,18.81-3.451,40.706c0,14.311,9.109,27.022,22.66,31.617c85.341,28.329,83.985,29.917,93.86,29.917
	c9.9,0,12.039-2.739,73.051-22.863c3.967-1.346,6.093-5.657,4.747-9.625c-1.346-3.967-5.657-6.093-9.625-4.747l-62.091,21.051
	c-3.927,1.336-8.248,1.336-12.165,0l-82.899-28.115c-7.388-2.5-12.357-9.433-12.357-17.236v-25.848
	c0-6.022,2.874-11.507,7.672-14.857h187.335c4.797,3.35,7.671,8.835,7.671,14.857v25.848c0,5.637-2.672,11.052-7.155,14.473
	c-3.33,2.54-3.967,7.307-1.427,10.637s7.307,3.967,10.637,1.427c8.218-6.275,13.127-16.193,13.127-26.537
	c-0.729-21.715,1.995-29.715-3.451-40.706h15.622c2.758,16.759,1.09,21.097,1.583,121.6c0,48.195-39.218,87.413-87.413,87.413
	c-10.674,0-74.965,0-85.722,0c-48.195,0-87.413-39.218-87.413-87.413v-26.759c0-4.19-3.401-7.591-7.591-7.591
	c-4.19,0-7.591,3.401-7.591,7.591v26.759c0,36.919,19.601,69.339,48.94,87.413c-4.668,0.045-9.697-0.156-17.136,0.384
	C64.396,330.236,3.507,395.654,3.507,473.601v18.663c0,10.882,8.854,19.735,19.735,19.735h465.514
	c10.882,0,19.735-8.854,19.735-19.735v-18.663C508.492,395.654,447.604,330.236,369.88,324.675z M266.687,15.264
	c28.181,0,55.325,10.102,76.748,28.156H168.118C210.737,7.508,256.029,16.66,266.687,15.264z M130.647,100.096
	c4.652-15.239,12.379-29.436,22.394-41.495h205.471c3.526,4.837,15.188,17.856,22.4,41.495
	C288.193,100.096,224.014,100.096,130.647,100.096z M436.978,45.394c-4.929,7.601-12.722,17.276-21.972,22.529
	c-9.625-6.599-20.484-10.991-29.471-12.357C396.407,39.453,418.129,40.399,436.978,45.394z M385.048,70.878
	c22.777,4.873,49.578,27.089,48.114,63.184c-7.58,0.091-21.112-1.144-32.326-9.645C399.416,105.569,393.981,87.3,385.048,70.878z
	 M280.592,339.471l-24.593,24.593l-24.593-24.593H280.592z M209.94,339.471l35.331,35.331l-24.654,24.654l-59.985-59.985
	L209.94,339.471L209.94,339.471z M193.916,496.922C193.863,496.976,193.858,496.981,193.916,496.922L193.916,496.922z
	 M194.02,496.818h-49.298l28.905-28.905c2.965-2.965,2.965-7.773,0-10.738s-7.773-2.965-10.738,0l-39.634,39.643H23.242
	c-2.468,0-4.554-2.086-4.554-4.554v-18.663c0-68.877,52.921-126.86,121.112-133.495l70.079,70.079l0,0l-25.524,25.524
	c-2.965,2.965-2.965,7.763,0,10.728c2.965,2.965,7.773,2.965,10.738,0c0.199-0.199,71.744-71.8,71.645-71.634l35.321-35.331h49.308
	C351.269,339.57,199.327,491.511,194.02,496.818z M493.311,492.265c0,2.468-2.086,4.554-4.554,4.554H215.486
	c13.37-13.37,149.73-149.73,156.713-156.712c68.187,6.631,121.112,64.617,121.112,133.495V492.265z"/>
<g>
</g>
<g>
</g>
<g>
</g>
<g>
</g>
<g>
</g>
<g>
</g>
<g>
</g>
<g>
</g>
<g>
</g>
<g>
</g>
<g>
</g>
<g>
</g>
<g>
</g>
<g>
</g>
<g>
</g>
</svg>
